Coordinates
version=1
nRows=34
nColumns=38
inDegrees=no

Units are S.I. units (second, meters, Newtons, ...)
If the header above contains a line with 'inDegrees', this indicates whether rotational values are in degrees (yes) or radians (no).

endheader
time	pelvis_tilt	pelvis_list	pelvis_rotation	pelvis_tx	pelvis_ty	pelvis_tz	hip_flexion_r	hip_adduction_r	hip_rotation_r	knee_angle_r	ankle_angle_r	subtalar_angle_r	mtp_angle_r	hip_flexion_l	hip_adduction_l	hip_rotation_l	knee_angle_l	ankle_angle_l	subtalar_angle_l	mtp_angle_l	lumbar_extension	lumbar_bending	lumbar_rotation	arm_flex_r	arm_add_r	arm_rot_r	elbow_flex_r	pro_sup_r	wrist_flex_r	wrist_dev_r	arm_flex_l	arm_add_l	arm_rot_l	elbow_flex_l	pro_sup_l	wrist_flex_l	wrist_dev_l
1.17	0.788999	1.31113	1.00212	0.67238	0.559748	1.01857	0.485068	0.0921602	-0.260751	0.303376	-0.146113	0	0	0.0872191	-0.234691	0.0960167	0.858615	-0.490531	0	0	0.122447	0.18079	-0.270991	-0.0345957	-0.20508	0.474886	0.310734	1.5708	0	0	-0.0471967	-0.301964	0.411287	0.635946	1.2392	0	0
1.18	0.794538	1.31	1.00896	0.671658	0.572478	1.01965	0.470165	0.0930498	-0.266924	0.299872	-0.134233	0	0	0.120549	-0.228286	0.135647	0.912601	-0.497438	0	0	0.123157	0.178957	-0.27755	-0.034236	-0.206681	0.466179	0.321067	1.5708	0	0	-0.0483379	-0.302854	0.433078	0.624562	1.21804	0	0
1.19	0.801031	1.31074	1.01332	0.670938	0.585163	1.02113	0.453745	0.0936267	-0.274382	0.296899	-0.123635	0	0	0.151041	-0.221154	0.168317	0.962886	-0.484692	0	0	0.121469	0.176588	-0.280084	-0.0341715	-0.207972	0.453419	0.33126	1.5686	0	0	-0.0468684	-0.303594	0.457826	0.612221	1.19857	0	0
1.2	0.809505	1.31271	1.0129	0.670395	0.597851	1.023	0.435976	0.0955393	-0.280549	0.292946	-0.114911	0	0	0.17859	-0.214633	0.19324	1.00868	-0.457786	0	0	0.117994	0.174613	-0.277392	-0.0348202	-0.209137	0.435634	0.341518	1.56456	0	0	-0.0425782	-0.304523	0.488384	0.598678	1.17845	0	0
1.21	0.817707	1.31599	1.00962	0.670012	0.610537	1.02515	0.417177	0.0981831	-0.285343	0.288452	-0.10935	0	0	0.203466	-0.208349	0.210641	1.04975	-0.427408	0	0	0.112921	0.172331	-0.271056	-0.0345231	-0.210079	0.417955	0.35031	1.5596	0	0	-0.038851	-0.304381	0.514276	0.585741	1.16576	0	0
1.22	0.822687	1.32	1.0066	0.66981	0.623257	1.02743	0.398053	0.100778	-0.287627	0.283372	-0.105697	0	0	0.226694	-0.201876	0.221963	1.08613	-0.3966	0	0	0.107751	0.169073	-0.261547	-0.0341161	-0.210927	0.400383	0.358361	1.55369	0	0	-0.0367458	-0.303924	0.53576	0.574404	1.15971	0	0
1.23	0.823398	1.32465	1.00516	0.669752	0.63597	1.02976	0.378528	0.103009	-0.287562	0.277873	-0.102902	0	0	0.24843	-0.195121	0.228228	1.11773	-0.363784	0	0	0.102815	0.164693	-0.248713	-0.0345784	-0.211826	0.380878	0.366867	1.54693	0	0	-0.035871	-0.303741	0.554265	0.565746	1.1542	0	0
1.24	0.817432	1.32908	1.00829	0.669806	0.648626	1.03204	0.359898	0.104352	-0.287715	0.272492	-0.101258	0	0	0.270177	-0.188175	0.230175	1.14429	-0.335724	0	0	0.099526	0.158965	-0.234872	-0.0346277	-0.212802	0.363547	0.374471	1.54049	0	0	-0.0379801	-0.304036	0.566587	0.560711	1.15038	0	0
1.25	0.809443	1.33354	1.0121	0.669918	0.661254	1.03431	0.340852	0.105529	-0.286647	0.26652	-0.100494	0	0	0.291156	-0.18161	0.229052	1.16616	-0.307846	0	0	0.0969504	0.152861	-0.219672	-0.0350284	-0.213968	0.346283	0.382077	1.53453	0	0	-0.0414505	-0.305038	0.576516	0.55813	1.14668	0	0
1.26	0.800719	1.33848	1.01556	0.670076	0.673804	1.03666	0.321188	0.106337	-0.285281	0.259628	-0.100971	0	0	0.310995	-0.176	0.223822	1.18304	-0.282434	0	0	0.0941585	0.146356	-0.203884	-0.0349381	-0.215217	0.329972	0.389223	1.52955	0	0	-0.0462345	-0.306767	0.583236	0.558022	1.14263	0	0
1.27	0.792117	1.34412	1.01835	0.670261	0.686266	1.03912	0.300614	0.106992	-0.284157	0.251535	-0.102849	0	0	0.329332	-0.171354	0.21509	1.19452	-0.259872	0	0	0.0905692	0.139374	-0.18838	-0.033882	-0.216334	0.315021	0.395653	1.52573	0	0	-0.0524127	-0.309013	0.585959	0.560075	1.13682	0	0
1.28	0.783199	1.35006	1.02147	0.670388	0.698696	1.04155	0.279628	0.107162	-0.284028	0.242469	-0.106246	0	0	0.346588	-0.167225	0.204441	1.20115	-0.238862	0	0	0.0868234	0.132029	-0.173909	-0.0321503	-0.217545	0.302048	0.401618	1.52387	0	0	-0.0603754	-0.31151	0.584512	0.56435	1.12803	0	0
1.29	0.773757	1.35584	1.02545	0.670441	0.711065	1.04392	0.258433	0.106995	-0.283142	0.232152	-0.110953	0	0	0.363409	-0.163521	0.192727	1.20334	-0.217834	0	0	0.0833232	0.124554	-0.161003	-0.0296029	-0.218917	0.291427	0.407147	1.52462	0	0	-0.0694872	-0.314279	0.580504	0.569928	1.1174	0	0
1.3	0.761667	1.36068	1.03283	0.670331	0.723104	1.04618	0.238846	0.106097	-0.284308	0.222359	-0.116662	0	0	0.381274	-0.15969	0.181296	1.20143	-0.196301	0	0	0.0804091	0.117057	-0.149703	-0.0262851	-0.220442	0.281721	0.413013	1.52628	0	0	-0.078311	-0.317221	0.575753	0.575854	1.10718	0	0
1.31	0.749239	1.36528	1.0399	0.670151	0.734692	1.04839	0.220491	0.104775	-0.285928	0.214053	-0.12317	0	0	0.398658	-0.156288	0.16933	1.19488	-0.175062	0	0	0.0763062	0.109978	-0.138427	-0.0217415	-0.222715	0.273255	0.420131	1.5293	0	0	-0.0858676	-0.320066	0.570608	0.581751	1.09781	0	0
1.32	0.736787	1.36877	1.04781	0.669886	0.746282	1.05043	0.203151	0.103522	-0.288941	0.205661	-0.130293	0	0	0.415951	-0.153589	0.157938	1.18312	-0.155302	0	0	0.0733987	0.10344	-0.128805	-0.0175204	-0.225314	0.265245	0.428175	1.53387	0	0	-0.0935267	-0.322627	0.565005	0.586938	1.08953	0	0
1.33	0.719658	1.37043	1.06104	0.669525	0.758038	1.05221	0.187516	0.102345	-0.292117	0.197316	-0.137115	0	0	0.433891	-0.151053	0.146789	1.16598	-0.136704	0	0	0.0734902	0.0968441	-0.120674	-0.0142069	-0.227814	0.257007	0.436497	1.54009	0	0	-0.101794	-0.324709	0.559192	0.590953	1.08222	0	0
1.34	0.695479	1.37043	1.08064	0.669134	0.769948	1.05376	0.174475	0.100482	-0.295933	0.189993	-0.143995	0	0	0.45205	-0.148581	0.134071	1.1428	-0.12015	0	0	0.0764874	0.0898116	-0.112717	-0.0116503	-0.229987	0.248037	0.444841	1.54768	0	0	-0.11038	-0.326064	0.553288	0.593308	1.07604	0	0
1.35	0.673973	1.36992	1.09714	0.668703	0.781712	1.05515	0.162023	0.0992774	-0.298577	0.18265	-0.15125	0	0	0.469004	-0.147575	0.119908	1.11411	-0.106077	0	0	0.0791951	0.0837659	-0.104834	-0.00910433	-0.232383	0.238208	0.454593	1.55587	0	0	-0.118159	-0.327079	0.547741	0.594927	1.0717	0	0
1.36	0.653948	1.36886	1.11197	0.668242	0.793336	1.05629	0.150219	0.0983754	-0.299705	0.17569	-0.158304	0	0	0.485034	-0.147349	0.105128	1.08044	-0.0942591	0	0	0.0817893	0.0783934	-0.0972227	-0.00691852	-0.235078	0.227763	0.466079	1.56415	0	0	-0.125222	-0.328148	0.54285	0.596318	1.06939	0	0
1.37	0.631537	1.36736	1.12906	0.667791	0.804844	1.0572	0.139648	0.0970637	-0.302005	0.170073	-0.164347	0	0	0.500084	-0.146941	0.0898188	1.04132	-0.0849404	0	0	0.0845949	0.072775	-0.0901254	-0.00455238	-0.237451	0.216891	0.478019	1.5708	0	0	-0.131158	-0.329295	0.53965	0.596365	1.06854	0	0
1.38	0.605901	1.36601	1.14856	0.667331	0.81631	1.05799	0.129774	0.0948911	-0.305967	0.165865	-0.168619	0	0	0.512797	-0.146108	0.0737128	0.995848	-0.078865	0	0	0.0874204	0.0665621	-0.0827647	-0.00139921	-0.24006	0.209287	0.489392	1.5708	0	0	-0.136257	-0.330266	0.537211	0.595211	1.06855	0	0
1.39	0.581442	1.36628	1.16646	0.666844	0.827963	1.05874	0.117654	0.0920949	-0.306949	0.161028	-0.172663	0	0	0.520775	-0.144915	0.0573358	0.94371	-0.0762046	0	0	0.0886572	0.0598918	-0.0753503	0.00157142	-0.24232	0.202042	0.501063	1.5708	0	0	-0.140918	-0.331349	0.535027	0.593659	1.06953	0	0
1.4	0.668271	1.4439	1.03945	0.668509	0.844542	1.06704	0.0119545	0.0744534	-0.306262	0.137982	-0.192839	0	0	0.41483	-0.157591	-0.0572679	0.8558	-0.084372	0	0	0.00145668	0.0354956	-0.0310158	0.0148899	-0.239947	0.191451	0.510218	1.5708	0	0	-0.135701	-0.337369	0.534848	0.595157	1.06934	0	0
1.41	0.659115	1.45977	1.03495	0.66817	0.857279	1.06885	-0.0178896	0.0653841	-0.305008	0.130433	-0.200571	0	0	0.394015	-0.154934	-0.0937579	0.781247	-0.0920305	0	0	-0.0138413	0.0239546	-0.0177681	0.0202251	-0.241921	0.186307	0.521081	1.5708	0	0	-0.138372	-0.338797	0.533104	0.593454	1.06922	0	0
1.42	0.623206	1.46711	1.06213	0.667401	0.869435	1.06954	-0.0370467	0.0577948	-0.304711	0.125697	-0.204842	0	0	0.381708	-0.147429	-0.11096	0.699014	-0.101198	0	0	-0.0194976	0.0146405	-0.0101367	0.0248509	-0.244121	0.182052	0.531626	1.5708	0	0	-0.141024	-0.339563	0.531703	0.590449	1.06822	0	0
1.43	0.583802	1.47133	1.09499	0.666441	0.881303	1.06964	-0.0528619	0.0515286	-0.304904	0.122192	-0.207454	0	0	0.37037	-0.139512	-0.123157	0.608941	-0.114641	0	0	-0.0227986	0.00694804	-0.0050149	0.0292068	-0.246379	0.177511	0.543	1.5708	0	0	-0.14317	-0.34049	0.530652	0.587828	1.06637	0	0
1.44	0.559284	1.47143	1.11409	0.665317	0.892925	1.06895	-0.0652861	0.0486229	-0.303628	0.119596	-0.208113	0	0	0.362868	-0.135534	-0.13553	0.51864	-0.13142	0	0	-0.0232874	0.00320647	-0.00157459	0.0324678	-0.249932	0.17343	0.557097	1.5708	0	0	-0.145603	-0.341224	0.529614	0.586422	1.06433	0	0
1.45	0.548905	1.4704	1.12099	0.663887	0.904663	1.06776	-0.0778024	0.047519	-0.30482	0.116417	-0.207692	0	0	0.357388	-0.133248	-0.148495	0.431648	-0.151424	0	0	-0.0230247	0.00165698	-6.71125e-05	0.0343025	-0.254197	0.169377	0.572872	1.5708	0	0	-0.148117	-0.34178	0.52886	0.585303	1.06296	0	0
1.46	0.545211	1.46621	1.1229	0.662223	0.916598	1.06592	-0.088005	0.0485991	-0.307721	0.112907	-0.206934	0	0	0.357431	-0.133056	-0.162693	0.351898	-0.171366	0	0	-0.0192512	0.00244109	-0.000316976	0.0345708	-0.258729	0.165212	0.589065	1.5708	0	0	-0.151447	-0.341709	0.527335	0.583833	1.06193	0	0
1.47	0.548775	1.45797	1.11908	0.660356	0.928593	1.06335	-0.0947356	0.0523219	-0.310622	0.10965	-0.205838	0	0	0.364557	-0.135177	-0.173781	0.282453	-0.186713	0	0	-0.0113562	0.00605417	-0.00225501	0.0337764	-0.264023	0.16228	0.605267	1.5708	0	0	-0.155701	-0.341026	0.524695	0.582519	1.06091	0	0
1.48	0.553781	1.44836	1.11453	0.658298	0.940702	1.06034	-0.100116	0.0565485	-0.314213	0.107344	-0.203641	0	0	0.374957	-0.137669	-0.182245	0.22117	-0.200599	0	0	-0.00191632	0.0108131	-0.00468866	0.031709	-0.269695	0.159264	0.622012	1.5708	0	0	-0.159826	-0.339543	0.521289	0.580517	1.06004	0	0
1.49	0.558624	1.4379	1.11052	0.6561	0.952904	1.05699	-0.104387	0.0610097	-0.317478	0.106409	-0.200351	0	0	0.387383	-0.14006	-0.187329	0.166879	-0.210612	0	0	0.00852328	0.0162334	-0.00735108	0.029024	-0.275655	0.156557	0.638533	1.5708	0	0	-0.163685	-0.337464	0.517073	0.57806	1.05928	0	0
1.5	0.562827	1.42722	1.10725	0.653817	0.965164	1.05336	-0.107794	0.0651863	-0.320274	0.107388	-0.195996	0	0	0.400398	-0.142204	-0.188476	0.117869	-0.215903	0	0	0.0192121	0.0218455	-0.0100174	0.0260384	-0.281483	0.153756	0.654608	1.5708	0	0	-0.167197	-0.335107	0.512034	0.5756	1.05854	0	0
